<?xml version="1.0" encoding="UTF-8"?>
<svg id="Layer_1" xmlns="http://www.w3.org/2000/svg" version="1.1" viewBox="0 0 512 512">
  <!-- Generator: Adobe Illustrator 30.3.0, SVG Export Plug-In . SVG Version: 2.1.3 Build 182)  -->
  <defs>
    <style>
      .st0 {
        fill: #fff;
      }

      .st1 {
        fill: #cf7f4e;
      }
    </style>
  </defs>
  <rect class="st1" y="0" width="512" height="512" rx="96" ry="96"/>
  <g>
    <path class="st0" d="M368.3,240.3c5.3-10.7,8.1-22.5,8.1-34.6,0-43.2-35.1-78.4-78.4-78.4s-49.8,12.8-64.3,33.7c-.9,0-1.9-.1-2.8-.1-42.9,0-79.6,28.1-91.3,68.2-3.2-.6-6.6-1-9.4-1-33.9,0-61.6,27.6-61.6,61.6s27.6,61.6,61.6,61.6,11.2-5,11.2-11.2-5-11.2-11.2-11.2c-21.6,0-39.2-17.6-39.2-39.2s17.6-39.2,39.2-39.2,4,.4,6.7.9v10.3c0,6.2,5,11.2,11.2,11.2s11.2-5,11.2-11.2v-18c6-35,36-60.3,71.7-60.3s65.7,25.3,71.7,60.3v18c0,6.2,5,11.2,11.2,11.2s11.2-5,11.2-11.2v-10.3c2.6-.5,5.1-.9,6.7-.9,21.6,0,39.2,17.6,39.2,39.2s-17.6,39.2-39.2,39.2-11.2,5-11.2,11.2,5,11.2,11.2,11.2c33.9,0,61.6-27.6,61.6-61.6s-9.8-38.1-24.9-49.3ZM322.1,229c-9-30.8-32.8-54.5-62.7-63.8,10.3-9.8,24-15.6,38.6-15.6,30.9,0,56,25.1,56,56s-2,17.1-5.8,24.7c-5.3-1.5-10.8-2.3-16.6-2.3s-6.2.4-9.5,1Z"/>
    <path class="st0" d="M298,104.9c6.2,0,11.2-5,11.2-11.2v-22.4c0-6.2-5-11.2-11.2-11.2s-11.2,5-11.2,11.2v22.4c0,6.2,5,11.2,11.2,11.2Z"/>
    <path class="st0" d="M432.3,194.4h-22.4c-6.2,0-11.2,5-11.2,11.2s5,11.2,11.2,11.2h22.4c6.2,0,11.2-5,11.2-11.2s-5-11.2-11.2-11.2Z"/>
    <path class="st0" d="M377.1,137.7c2.9,0,5.7-1.1,7.9-3.3l15.8-15.8c4.4-4.4,4.4-11.5,0-15.8-4.4-4.4-11.5-4.4-15.8,0l-15.8,15.8c-4.4,4.4-4.4,11.5,0,15.8,2.2,2.2,5,3.3,7.9,3.3Z"/>
    <path class="st0" d="M210.9,134.4c2.2,2.2,5,3.3,7.9,3.3s5.7-1.1,7.9-3.3c4.4-4.4,4.4-11.5,0-15.8l-15.8-15.8c-4.4-4.4-11.5-4.4-15.8,0s-4.4,11.5,0,15.8l15.8,15.8Z"/>
    <path class="st0" d="M239.1,295.5c-6-1.5-12.1,2.1-13.6,8.1l-33.6,134.3c-1.5,6,2.1,12.1,8.1,13.6.9.2,1.8.3,2.7.3,5,0,9.6-3.4,10.8-8.5l33.6-134.3c1.5-6-2.1-12.1-8.1-13.6Z"/>
    <path class="st0" d="M283.9,329.1c-6-1.5-12.1,2.1-13.6,8.1l-16.8,67.2c-1.5,6,2.1,12.1,8.1,13.6.9.2,1.8.3,2.7.3,5,0,9.6-3.4,10.8-8.5l16.8-67.2c1.5-6-2.1-12.1-8.1-13.6Z"/>
    <path class="st0" d="M177.6,329.1c-6-1.5-12.1,2.1-13.6,8.1l-16.8,67.2c-1.5,6,2.1,12.1,8.1,13.6.9.2,1.8.3,2.7.3,5,0,9.6-3.4,10.8-8.5l16.8-67.2c1.5-6-2.1-12.1-8.1-13.6Z"/>
  </g>
</svg>